<mxfile host="app.diagrams.net" agent="Mozilla/5.0 (Windows NT 10.0; Win64; x64; rv:128.0) Gecko/20100101 Firefox/128.0" version="24.7.4">
  <diagram name="Page-1" id="O-fsMMCeQMWqfDqAKg3B">
    <mxGraphModel dx="733" dy="368" grid="1" gridSize="10" guides="1" tooltips="1" connect="1" arrows="1" fold="1" page="1" pageScale="1" pageWidth="850" pageHeight="1100" math="0" shadow="0">
      <root>
        <mxCell id="0" />
        <mxCell id="1" parent="0" />
        <mxCell id="oGdP9kBHghNsdJ7slh_V-10" style="edgeStyle=orthogonalEdgeStyle;rounded=0;orthogonalLoop=1;jettySize=auto;html=1;exitX=0.5;exitY=1;exitDx=0;exitDy=0;entryX=0.5;entryY=0;entryDx=0;entryDy=0;" edge="1" parent="1" source="oGdP9kBHghNsdJ7slh_V-1" target="oGdP9kBHghNsdJ7slh_V-2">
          <mxGeometry relative="1" as="geometry" />
        </mxCell>
        <mxCell id="oGdP9kBHghNsdJ7slh_V-1" value="Fungsi" style="html=1;whiteSpace=wrap;" vertex="1" parent="1">
          <mxGeometry x="350" y="120" width="110" height="50" as="geometry" />
        </mxCell>
        <mxCell id="oGdP9kBHghNsdJ7slh_V-11" style="edgeStyle=orthogonalEdgeStyle;rounded=0;orthogonalLoop=1;jettySize=auto;html=1;exitX=0.5;exitY=1;exitDx=0;exitDy=0;entryX=0.5;entryY=0;entryDx=0;entryDy=0;" edge="1" parent="1" source="oGdP9kBHghNsdJ7slh_V-2" target="oGdP9kBHghNsdJ7slh_V-3">
          <mxGeometry relative="1" as="geometry" />
        </mxCell>
        <mxCell id="oGdP9kBHghNsdJ7slh_V-12" style="edgeStyle=orthogonalEdgeStyle;rounded=0;orthogonalLoop=1;jettySize=auto;html=1;exitX=0.25;exitY=1;exitDx=0;exitDy=0;curved=1;entryX=1;entryY=0.25;entryDx=0;entryDy=0;" edge="1" parent="1" source="oGdP9kBHghNsdJ7slh_V-2" target="oGdP9kBHghNsdJ7slh_V-7">
          <mxGeometry relative="1" as="geometry">
            <mxPoint x="340" y="350" as="targetPoint" />
          </mxGeometry>
        </mxCell>
        <mxCell id="oGdP9kBHghNsdJ7slh_V-13" style="edgeStyle=orthogonalEdgeStyle;rounded=0;orthogonalLoop=1;jettySize=auto;html=1;exitX=0.75;exitY=1;exitDx=0;exitDy=0;entryX=0;entryY=0.25;entryDx=0;entryDy=0;curved=1;" edge="1" parent="1" source="oGdP9kBHghNsdJ7slh_V-2" target="oGdP9kBHghNsdJ7slh_V-6">
          <mxGeometry relative="1" as="geometry" />
        </mxCell>
        <mxCell id="oGdP9kBHghNsdJ7slh_V-14" style="edgeStyle=orthogonalEdgeStyle;rounded=0;orthogonalLoop=1;jettySize=auto;html=1;exitX=1;exitY=1;exitDx=0;exitDy=0;entryX=0;entryY=0.5;entryDx=0;entryDy=0;curved=1;" edge="1" parent="1" source="oGdP9kBHghNsdJ7slh_V-2" target="oGdP9kBHghNsdJ7slh_V-8">
          <mxGeometry relative="1" as="geometry" />
        </mxCell>
        <mxCell id="oGdP9kBHghNsdJ7slh_V-15" style="edgeStyle=orthogonalEdgeStyle;rounded=0;orthogonalLoop=1;jettySize=auto;html=1;exitX=0;exitY=1;exitDx=0;exitDy=0;entryX=1;entryY=0.5;entryDx=0;entryDy=0;curved=1;" edge="1" parent="1" source="oGdP9kBHghNsdJ7slh_V-2" target="oGdP9kBHghNsdJ7slh_V-9">
          <mxGeometry relative="1" as="geometry" />
        </mxCell>
        <mxCell id="oGdP9kBHghNsdJ7slh_V-2" value="Suatu Proses" style="icon;html=1;image=img/clipart/Gear_128x128.png" vertex="1" parent="1">
          <mxGeometry x="375" y="220" width="60" height="60" as="geometry" />
        </mxCell>
        <mxCell id="oGdP9kBHghNsdJ7slh_V-3" value="Login" style="html=1;whiteSpace=wrap;" vertex="1" parent="1">
          <mxGeometry x="350" y="400" width="110" height="50" as="geometry" />
        </mxCell>
        <mxCell id="oGdP9kBHghNsdJ7slh_V-6" value="Cetak Data" style="html=1;whiteSpace=wrap;" vertex="1" parent="1">
          <mxGeometry x="480" y="340" width="110" height="50" as="geometry" />
        </mxCell>
        <mxCell id="oGdP9kBHghNsdJ7slh_V-7" value="Edit data" style="html=1;whiteSpace=wrap;" vertex="1" parent="1">
          <mxGeometry x="220" y="340" width="110" height="50" as="geometry" />
        </mxCell>
        <mxCell id="oGdP9kBHghNsdJ7slh_V-8" value="Pilih menu" style="html=1;whiteSpace=wrap;" vertex="1" parent="1">
          <mxGeometry x="580" y="280" width="110" height="50" as="geometry" />
        </mxCell>
        <mxCell id="oGdP9kBHghNsdJ7slh_V-9" value="Menu" style="html=1;whiteSpace=wrap;" vertex="1" parent="1">
          <mxGeometry x="120" y="280" width="110" height="50" as="geometry" />
        </mxCell>
      </root>
    </mxGraphModel>
  </diagram>
</mxfile>
